<svg width="50" height="50" xmlns="http://www.w3.org/2000/svg">

 <g>
  <title>Layer 1</title>
  <path stroke="#000" id="svg_2" d="m611.22548,129.51955c-20.43294,0 -37.00003,0.17896 -37.00003,0.39974c0,0.12628 5.43856,0.23879 13.90606,0.31202c-1.20481,0.06492 -3.6092,0.13683 -8.25626,0.20043c0,0 10.84724,-0.01167 18.50882,-0.13797c0.44108,0.00176 0.89763,0.00308 1.34288,0.00471c-0.41844,-0.0203 -0.66478,-0.0414 -0.66478,-0.06335c0,-0.14895 10.2021,-0.26559 23.23211,-0.26559c9.35895,0 17.23393,0.0604 20.94099,0.14952c3.15579,-0.05883 4.99024,-0.12697 4.99024,-0.19983c0,-0.22073 -16.56709,-0.39969 -37.00001,-0.39969l0,0zm31.5965,0.71562c0,-0.12246 -9.18893,-0.22182 -20.53081,-0.22182c-11.3357,0 -20.52981,0.09935 -20.52981,0.22182c0,0.12253 9.19411,0.22183 20.52981,0.22183c2.51054,0 4.90159,-0.00511 7.12464,-0.01402c4.25023,0.07011 10.26898,0.07656 10.26898,0.07656c-2.5775,-0.0353 -3.90906,-0.07519 -4.57901,-0.11124c4.69551,-0.04059 7.7162,-0.10302 7.7162,-0.17313z" fill="#fff"/>
  <path id="svg_5" d="m25.6647,8.68446c-11.09792,0 -20.09616,5.54099 -20.09616,12.37663c0,3.90986 2.95389,7.3935 7.55292,9.66081c-0.65438,2.01014 -1.9603,4.23652 -4.4843,6.20567c0,0 5.89156,-0.36136 10.05286,-4.27175c0.23957,0.05445 0.48754,0.09543 0.72937,0.14571c-0.22727,-0.62842 -0.36107,-1.2817 -0.36107,-1.96141c0,-4.61187 5.54116,-8.22308 12.61826,-8.22308c5.08321,0 9.36042,1.87015 11.37386,4.6295c1.71403,-1.82143 2.71039,-3.93112 2.71039,-6.18703c0,-6.83407 -8.99823,-12.37506 -20.09615,-12.37506l0,0zm17.16129,22.15672c0,-3.79166 -4.99087,-6.86779 -11.15108,-6.86779c-6.15686,0 -11.15054,3.07613 -11.15054,6.86779c0,3.7937 4.99368,6.86829 11.15054,6.86829c1.36357,0 2.66224,-0.15815 3.86967,-0.43395c2.30846,2.17087 5.57748,2.37048 5.57748,2.37048c-1.39994,-1.09298 -2.12316,-2.32801 -2.48704,-3.44429c2.55031,-1.25678 4.19097,-3.18969 4.19097,-5.36053z" stroke="#000" fill="#fff"/>
  <path id="svg_6" d="m98.90757,21.50465c-0.40176,0 -0.7275,0.21656 -0.7275,0.48372c0,0.15281 0.10693,0.28896 0.27342,0.37758c-0.02369,0.07856 -0.07096,0.16558 -0.16234,0.24254c0,0 0.21328,-0.01412 0.36392,-0.16696c0.00867,0.00213 0.01765,0.00373 0.0264,0.00569c-0.00823,-0.02456 -0.01307,-0.05009 -0.01307,-0.07666c0,-0.18025 0.2006,-0.32139 0.45679,-0.32139c0.18402,0 0.33886,0.07309 0.41174,0.18094c0.06205,-0.07119 0.09812,-0.15364 0.09812,-0.24181c0,-0.2671 -0.32574,-0.48366 -0.7275,-0.48366l0,0zm0.62126,0.86597c0,-0.14819 -0.18067,-0.26842 -0.40368,-0.26842c-0.22288,0 -0.40366,0.12023 -0.40366,0.26842c0,0.14827 0.18078,0.26844 0.40366,0.26844c0.04936,0 0.09638,-0.00618 0.14009,-0.01696c0.08357,0.08485 0.20191,0.09265 0.20191,0.09265c-0.05068,-0.04272 -0.07686,-0.09099 -0.09003,-0.13462c0.09232,-0.04912 0.15172,-0.12466 0.15172,-0.20951z" stroke="#000" fill="#fff"/>
  <path id="svg_7" d="m44.37393,-13.89439c-0.40176,0 -0.7275,0.21656 -0.7275,0.48372c0,0.15281 0.10693,0.28896 0.27342,0.37758c-0.02369,0.07856 -0.07096,0.16558 -0.16234,0.24254c0,0 0.21328,-0.01412 0.36392,-0.16696c0.00867,0.00213 0.01765,0.00373 0.0264,0.00569c-0.00823,-0.02456 -0.01307,-0.05009 -0.01307,-0.07666c0,-0.18025 0.2006,-0.32139 0.45679,-0.32139c0.18402,0 0.33886,0.07309 0.41174,0.18094c0.06205,-0.07119 0.09812,-0.15364 0.09812,-0.24181c0,-0.2671 -0.32574,-0.48366 -0.7275,-0.48366l0,0zm0.62126,0.86597c0,-0.14819 -0.18067,-0.26842 -0.40368,-0.26842c-0.22288,0 -0.40366,0.12023 -0.40366,0.26842c0,0.14827 0.18078,0.26844 0.40366,0.26844c0.04936,0 0.09638,-0.00618 0.14009,-0.01696c0.08357,0.08485 0.20191,0.09265 0.20191,0.09265c-0.05068,-0.04272 -0.07686,-0.09099 -0.09003,-0.13462c0.09232,-0.04912 0.15172,-0.12466 0.15172,-0.20951z" stroke="#000" fill="#fff"/>
  <path id="svg_8" d="m45.81201,-15.99919c-4.61971,0 -8.36538,1.10132 -8.36538,2.45995c0,0.77711 1.22961,1.46952 3.14404,1.92016c-0.2724,0.39953 -0.81601,0.84204 -1.86667,1.23343c0,0 2.45247,-0.07182 4.18468,-0.84904c0.09972,0.01082 0.20295,0.01897 0.30361,0.02896c-0.09461,-0.1249 -0.1503,-0.25475 -0.1503,-0.38985c0,-0.91664 2.30661,-1.6344 5.25258,-1.6344c2.11598,0 3.89644,0.37171 4.73457,0.92015c0.7135,-0.36202 1.12825,-0.78134 1.12825,-1.22972c0,-1.35832 -3.74567,-2.45964 -8.36538,-2.45964l0,0zm7.14369,4.40382c0,-0.75362 -2.07754,-1.36503 -4.64184,-1.36503c-2.5629,0 -4.64161,0.6114 -4.64161,1.36503c0,0.75403 2.07871,1.36513 4.64161,1.36513c0.56761,0 1.10821,-0.03143 1.61082,-0.08625c0.96094,0.43148 2.32173,0.47115 2.32173,0.47115c-0.58275,-0.21724 -0.8838,-0.46271 -1.03527,-0.68458c1.06161,-0.24979 1.74457,-0.63398 1.74457,-1.06545z" stroke="#000" fill="#fff"/>
  <path id="svg_9" d="m110.38834,-14.46842c-0.40176,0 -0.7275,0.21656 -0.7275,0.48372c0,0.15281 0.10693,0.28896 0.27342,0.37758c-0.02369,0.07856 -0.07096,0.16558 -0.16234,0.24254c0,0 0.21328,-0.01412 0.36392,-0.16696c0.00867,0.00213 0.01765,0.00373 0.0264,0.00569c-0.00823,-0.02456 -0.01307,-0.05009 -0.01307,-0.07666c0,-0.18025 0.2006,-0.32139 0.45679,-0.32139c0.18402,0 0.33886,0.07309 0.41174,0.18094c0.06205,-0.07119 0.09812,-0.15364 0.09812,-0.24181c0,-0.2671 -0.32574,-0.48366 -0.7275,-0.48366l0,0zm0.62126,0.86597c0,-0.14819 -0.18067,-0.26842 -0.40368,-0.26842c-0.22288,0 -0.40366,0.12023 -0.40366,0.26842c0,0.14827 0.18078,0.26844 0.40366,0.26844c0.04936,0 0.09638,-0.00618 0.14009,-0.01696c0.08357,0.08485 0.20191,0.09265 0.20191,0.09265c-0.05068,-0.04272 -0.07686,-0.09099 -0.09003,-0.13462c0.09232,-0.04912 0.15172,-0.12466 0.15172,-0.20951z" stroke="#000" fill="#fff"/>
  <path id="svg_10" d="m139.6643,-40.10881c-0.40176,0 -0.7275,0.21656 -0.7275,0.48372c0,0.15281 0.10693,0.28896 0.27342,0.37758c-0.02369,0.07856 -0.07096,0.16558 -0.16234,0.24254c0,0 0.21328,-0.01412 0.36392,-0.16696c0.00867,0.00213 0.01765,0.00373 0.0264,0.00569c-0.00823,-0.02456 -0.01307,-0.05009 -0.01307,-0.07666c0,-0.18025 0.2006,-0.32139 0.45679,-0.32139c0.18402,0 0.33886,0.07309 0.41174,0.18094c0.06205,-0.07119 0.09812,-0.15364 0.09812,-0.24181c0,-0.2671 -0.32574,-0.48366 -0.7275,-0.48366l0,0zm0.62126,0.86597c0,-0.14819 -0.18067,-0.26842 -0.40368,-0.26842c-0.22288,0 -0.40366,0.12023 -0.40366,0.26842c0,0.14827 0.18078,0.26844 0.40366,0.26844c0.04936,0 0.09638,-0.00618 0.14009,-0.01696c0.08357,0.08485 0.20191,0.09265 0.20191,0.09265c-0.05068,-0.04272 -0.07686,-0.09099 -0.09003,-0.13462c0.09232,-0.04912 0.15172,-0.12466 0.15172,-0.20951z" stroke="#000" fill="#fff"/>
  <path id="svg_11" d="m167.21815,-49.86746c-0.40176,0 -0.7275,0.21656 -0.7275,0.48372c0,0.15281 0.10693,0.28896 0.27342,0.37758c-0.02369,0.07856 -0.07096,0.16558 -0.16234,0.24254c0,0 0.21328,-0.01412 0.36392,-0.16696c0.00867,0.00213 0.01765,0.00373 0.0264,0.00569c-0.00823,-0.02456 -0.01307,-0.05009 -0.01307,-0.07666c0,-0.18025 0.2006,-0.32139 0.45679,-0.32139c0.18402,0 0.33886,0.07309 0.41174,0.18094c0.06205,-0.07119 0.09812,-0.15364 0.09812,-0.24181c0,-0.2671 -0.32574,-0.48366 -0.7275,-0.48366l0,0zm0.62126,0.86597c0,-0.14819 -0.18067,-0.26842 -0.40368,-0.26842c-0.22288,0 -0.40366,0.12023 -0.40366,0.26842c0,0.14827 0.18078,0.26844 0.40366,0.26844c0.04936,0 0.09638,-0.00618 0.14009,-0.01696c0.08357,0.08485 0.20191,0.09265 0.20191,0.09265c-0.05068,-0.04272 -0.07686,-0.09099 -0.09003,-0.13462c0.09232,-0.04912 0.15172,-0.12466 0.15172,-0.20951z" stroke="#000" fill="#fff"/>
  <path id="svg_12" d="m173.53256,-39.91746c-0.40176,0 -0.7275,0.21656 -0.7275,0.48372c0,0.15281 0.10693,0.28896 0.27342,0.37758c-0.02369,0.07856 -0.07096,0.16558 -0.16234,0.24254c0,0 0.21328,-0.01412 0.36392,-0.16696c0.00867,0.00213 0.01765,0.00373 0.0264,0.00569c-0.00823,-0.02456 -0.01307,-0.05009 -0.01307,-0.07666c0,-0.18025 0.2006,-0.32139 0.45679,-0.32139c0.18402,0 0.33886,0.07309 0.41174,0.18094c0.06205,-0.07119 0.09812,-0.15364 0.09812,-0.24181c0,-0.2671 -0.32574,-0.48366 -0.7275,-0.48366l0,0zm0.62126,0.86597c0,-0.14819 -0.18067,-0.26842 -0.40368,-0.26842c-0.22288,0 -0.40366,0.12023 -0.40366,0.26842c0,0.14827 0.18078,0.26844 0.40366,0.26844c0.04936,0 0.09638,-0.00618 0.14009,-0.01696c0.08357,0.08485 0.20191,0.09265 0.20191,0.09265c-0.05068,-0.04272 -0.07686,-0.09099 -0.09003,-0.13462c0.09232,-0.04912 0.15172,-0.12466 0.15172,-0.20951z" stroke="#000" fill="#fff"/>
  <path id="svg_13" d="m177.93353,-27.86265c-0.40176,0 -0.7275,0.17208 -0.7275,0.38437c0,0.12142 0.10693,0.22961 0.27342,0.30003c-0.02369,0.06243 -0.07096,0.13157 -0.16234,0.19272c0,0 0.21328,-0.01122 0.36392,-0.13266c0.00867,0.00169 0.01765,0.00296 0.0264,0.00453c-0.00823,-0.01952 -0.01307,-0.0398 -0.01307,-0.06091c0,-0.14323 0.2006,-0.25537 0.45679,-0.25537c0.18402,0 0.33886,0.05808 0.41174,0.14377c0.06205,-0.05657 0.09812,-0.12208 0.09812,-0.19214c0,-0.21224 -0.32574,-0.38432 -0.7275,-0.38432l0,0zm0.62126,0.6881c0,-0.11775 -0.18067,-0.21329 -0.40368,-0.21329c-0.22288,0 -0.40366,0.09553 -0.40366,0.21329c0,0.11782 0.18078,0.2133 0.40366,0.2133c0.04936,0 0.09638,-0.00491 0.14009,-0.01348c0.08357,0.06742 0.20191,0.07362 0.20191,0.07362c-0.05068,-0.03394 -0.07686,-0.0723 -0.09003,-0.10697c0.09232,-0.03903 0.15172,-0.09906 0.15172,-0.16648z" stroke="#000" fill="#fff"/>
  <path id="svg_14" d="m169.70565,12.70273c-0.40176,0 -0.7275,0.21656 -0.7275,0.48372c0,0.15281 0.10693,0.28896 0.27342,0.37758c-0.02369,0.07856 -0.07096,0.16558 -0.16234,0.24254c0,0 0.21328,-0.01412 0.36392,-0.16696c0.00867,0.00213 0.01765,0.00373 0.0264,0.00569c-0.00823,-0.02456 -0.01307,-0.05009 -0.01307,-0.07666c0,-0.18025 0.2006,-0.32139 0.45679,-0.32139c0.18402,0 0.33886,0.07309 0.41174,0.18094c0.06205,-0.07119 0.09812,-0.15364 0.09812,-0.24181c0,-0.2671 -0.32574,-0.48366 -0.7275,-0.48366l0,0zm0.62126,0.86597c0,-0.14819 -0.18067,-0.26842 -0.40368,-0.26842c-0.22288,0 -0.40366,0.12023 -0.40366,0.26842c0,0.14827 0.18078,0.26844 0.40366,0.26844c0.04936,0 0.09638,-0.00618 0.14009,-0.01696c0.08357,0.08485 0.20191,0.09265 0.20191,0.09265c-0.05068,-0.04272 -0.07686,-0.09099 -0.09003,-0.13462c0.09232,-0.04912 0.15172,-0.12466 0.15172,-0.20951z" stroke="#000" fill="#fff"/>
 </g>
</svg>